<?xml version="1.0" standalone="no"?>
<!DOCTYPE svg PUBLIC "-//W3C//DTD SVG 20010904//EN"
 "http://www.w3.org/TR/2001/REC-SVG-20010904/DTD/svg10.dtd">
<svg version="1.0" xmlns="http://www.w3.org/2000/svg"
 width="320.000000pt" height="320.000000pt" viewBox="0 0 320.000000 320.000000"
 preserveAspectRatio="xMidYMid meet">
<metadata>
Created by potrace 1.14, written by Peter Selinger 2001-2017
</metadata>
<g transform="translate(0.000000,320.000000) scale(0.100000,-0.100000)"
fill="#000000" stroke="none">
<path d="M784 3072 c4 -7 2 -12 -3 -12 -6 0 -10 -3 -10 -7 3 -20 -2 -34 -11
-28 -5 3 -10 2 -10 -4 0 -5 5 -11 12 -13 8 -3 4 -12 -9 -25 -19 -19 -20 -22
-5 -28 15 -6 15 -8 -3 -22 -12 -10 -14 -14 -4 -10 12 4 15 -2 12 -29 -1 -19 2
-32 7 -29 4 3 7 -3 5 -12 -2 -10 -4 -18 -5 -18 -1 0 -3 -8 -5 -18 -2 -9 0 -15
5 -12 4 3 10 -2 14 -10 3 -8 1 -17 -5 -21 -6 -3 -8 -13 -4 -21 4 -13 3 -14 -9
-4 -12 10 -13 8 -9 -10 5 -17 3 -20 -8 -14 -12 7 -12 6 -1 -7 10 -13 9 -18 -5
-29 -16 -13 -17 -12 -4 4 7 9 9 17 3 17 -15 0 -24 -32 -11 -40 8 -6 7 -9 -2
-13 -10 -4 -10 -6 -1 -6 6 -1 12 -6 12 -12 0 -5 -4 -7 -10 -4 -14 8 -13 -8 1
-22 9 -9 6 -10 -12 -6 -23 5 -24 5 -4 -10 17 -13 17 -15 3 -14 -9 1 -16 -1
-15 -4 4 -13 -37 -50 -50 -45 -18 7 -16 1 5 -20 16 -17 16 -17 -4 -12 -19 5
-21 1 -19 -38 1 -24 -3 -40 -8 -37 -4 3 -6 12 -2 20 4 13 3 14 -10 3 -8 -7
-12 -17 -8 -23 4 -6 0 -8 -9 -5 -8 4 -15 0 -15 -8 0 -7 4 -11 9 -8 4 3 8 1 8
-4 0 -5 -9 -12 -21 -15 -14 -4 -18 -10 -13 -18 5 -9 2 -10 -11 -5 -15 5 -16 4
-5 -9 10 -12 10 -18 0 -30 -7 -8 -15 -13 -19 -11 -3 2 -7 -11 -7 -30 0 -24 4
-34 15 -35 11 0 12 -2 3 -6 -6 -2 -9 -10 -5 -16 5 -9 3 -9 -8 0 -11 9 -14 7
-16 -10 -5 -49 -11 -62 -27 -60 -11 0 -15 -4 -12 -13 3 -8 -1 -14 -10 -14 -10
0 -14 -6 -10 -15 4 -10 -1 -15 -15 -15 -11 0 -22 -7 -25 -15 -4 -8 -10 -13
-14 -10 -5 3 -6 -3 -3 -14 3 -10 -1 -22 -8 -26 -8 -5 -10 -4 -5 3 4 8 2 10 -8
6 -8 -3 -13 -14 -11 -25 3 -17 1 -18 -18 -7 -20 10 -21 10 -8 -5 12 -15 11
-17 -3 -17 -9 0 -16 -5 -16 -11 0 -5 6 -7 13 -4 6 4 5 1 -4 -7 -9 -7 -14 -20
-12 -28 3 -10 -1 -8 -11 4 -17 21 -22 11 -7 -13 11 -17 -24 -60 -49 -61 -13 0
-13 -1 0 -10 13 -9 7 -14 -12 -11 -4 0 -4 -7 -1 -16 5 -12 3 -14 -8 -8 -12 7
-12 6 -1 -7 10 -13 10 -18 1 -24 -8 -5 -9 -3 -4 6 5 8 4 11 -2 7 -5 -3 -9 -20
-8 -36 1 -26 -1 -29 -16 -20 -15 7 -17 6 -14 -10 2 -12 -3 -21 -16 -24 -13 -4
-17 -10 -12 -23 3 -9 2 -15 -3 -12 -5 3 -15 0 -21 -8 -8 -8 -9 -15 -3 -19 6
-4 7 -11 4 -17 -4 -7 -2 -8 4 -4 6 4 9 14 6 24 -5 14 -4 14 4 2 8 -10 8 -18 1
-27 -6 -7 -7 -18 -3 -25 6 -9 3 -9 -9 1 -15 12 -17 12 -11 -4 5 -13 4 -16 -5
-10 -10 6 -11 3 -1 -15 8 -15 8 -20 1 -16 -11 7 -18 -4 -23 -39 -2 -13 2 -19
12 -17 9 1 7 -5 -7 -17 -24 -20 -32 -37 -11 -25 7 4 8 3 4 -4 -4 -7 -13 -12
-19 -12 -7 0 -13 -12 -13 -26 -1 -14 -9 -33 -18 -43 -9 -10 -13 -22 -9 -26 5
-5 -1 -3 -11 5 -18 14 -19 14 -7 -7 6 -13 7 -23 2 -23 -6 0 -10 -234 -11 -620
l-1 -620 1601 0 1601 0 -2 115 c-2 94 -5 113 -16 104 -10 -9 -13 -7 -13 10 0
12 -5 19 -10 16 -5 -3 -10 -1 -10 5 0 6 -4 8 -10 5 -5 -3 -7 0 -4 8 3 8 -2 20
-11 27 -13 11 -15 9 -15 -11 -1 -21 -2 -22 -11 -6 -8 14 -14 15 -32 5 -19 -10
-20 -9 -10 4 10 12 10 15 -5 15 -9 0 -23 -5 -31 -11 -11 -8 -13 -8 -7 2 5 9
-5 12 -41 13 -61 2 -77 -1 -81 -12 -2 -5 -8 -6 -14 -3 -6 4 -6 9 2 14 8 5 3 7
-13 7 -17 -1 -22 -6 -16 -13 6 -7 1 -10 -14 -9 -12 2 -21 8 -19 14 1 7 -2 10
-8 6 -6 -3 -8 -10 -5 -15 3 -5 1 -11 -5 -15 -9 -5 -14 7 -11 27 0 4 -6 5 -14
2 -8 -4 -13 -9 -11 -13 3 -4 -4 -8 -15 -8 -18 -2 -19 0 -7 14 11 14 11 16 -2
8 -8 -4 -24 -15 -34 -24 -11 -9 -16 -10 -12 -3 4 6 2 12 -3 12 -6 0 -11 -4
-11 -10 0 -5 -5 -10 -11 -10 -5 0 -8 4 -5 9 3 5 -8 7 -25 6 -17 -2 -35 -9 -40
-16 -6 -10 -9 -7 -9 11 0 20 -2 22 -10 10 -7 -12 -12 -12 -22 -2 -7 7 -13 18
-13 25 0 7 -7 12 -15 12 -8 1 -14 6 -13 11 4 21 -26 89 -38 86 -9 -2 -8 2 2
14 9 12 9 15 2 10 -7 -4 -13 -4 -14 1 0 4 -2 16 -4 26 -2 9 1 15 5 12 5 -3 11
-1 15 5 3 5 -2 10 -12 11 -16 0 -16 1 2 9 11 5 15 9 9 9 -7 1 -15 8 -18 17 -6
14 -4 15 9 4 14 -12 15 -11 4 13 -7 15 -16 27 -21 27 -4 0 -7 6 -6 13 2 6 -3
11 -10 9 -9 -2 -11 2 -6 10 12 19 14 39 3 32 -5 -3 -7 -10 -4 -15 3 -5 -1 -6
-10 -2 -13 5 -14 7 -3 14 11 7 10 11 -2 19 -8 5 -11 10 -6 10 5 0 3 6 -3 14
-9 11 -9 15 1 19 9 3 7 10 -8 25 -12 12 -25 19 -28 16 -3 -2 -2 2 4 8 15 18
12 32 -4 19 -11 -9 -15 -8 -20 4 -3 10 -11 13 -18 9 -8 -5 -7 0 2 11 14 17 13
17 -10 11 -14 -4 -20 -4 -15 1 13 11 17 33 6 33 -5 0 -12 7 -15 16 -5 14 -4
15 9 4 13 -11 14 -10 9 4 -3 9 -14 16 -23 17 -9 1 -6 4 9 9 19 6 20 8 6 9 -24
1 -45 29 -46 59 0 13 -4 21 -8 18 -4 -2 -9 4 -9 15 -1 13 2 17 10 12 7 -4 7
-1 -1 10 -8 9 -11 20 -9 25 8 12 -4 27 -38 46 -16 10 -21 15 -10 12 19 -6 19
-5 3 8 -10 7 -18 17 -18 21 0 4 8 4 18 0 13 -5 14 -4 5 6 -10 10 -16 9 -29 -2
-12 -9 -15 -10 -10 -1 4 7 1 15 -9 18 -12 5 -13 9 -5 14 9 5 6 10 -9 15 -26 8
-27 21 -3 34 16 10 16 10 0 11 -21 0 -23 11 -5 29 10 12 9 13 -7 7 -14 -5 -17
-3 -12 11 4 9 1 20 -6 25 -10 6 -10 8 0 8 6 0 12 5 12 11 0 5 -4 7 -10 4 -6
-4 -7 1 -3 12 6 16 5 17 -13 3 -12 -9 -10 -4 6 14 14 16 18 26 10 21 -8 -5
-12 -5 -8 0 4 4 2 15 -5 23 -10 13 -9 14 11 3 22 -12 23 -11 17 9 -5 16 -4 20
5 15 9 -6 9 -3 1 13 -9 18 -8 19 12 15 17 -4 19 -2 8 5 -16 11 -25 46 -10 36
5 -3 6 -10 3 -16 -4 -6 -2 -8 4 -4 7 4 7 14 -3 32 -7 15 -12 35 -10 45 2 11 0
17 -6 14 -5 -4 -6 -11 -3 -17 4 -7 2 -8 -4 -4 -13 8 -5 36 11 36 6 0 2 7 -9
15 -18 15 -18 15 0 8 13 -4 17 -3 12 5 -4 7 -2 12 6 12 9 0 9 3 -2 10 -13 9
-8 14 11 12 4 -1 2 10 -5 23 -6 14 -14 25 -18 25 -4 0 -4 8 -1 18 6 15 5 16
-13 2 -14 -10 -16 -11 -7 0 10 11 10 17 0 29 -10 14 -10 14 5 3 11 -9 18 -10
23 -2 3 5 1 10 -4 10 -6 0 -11 5 -11 11 0 5 4 7 10 4 7 -4 7 3 0 20 -14 36
-13 58 3 49 9 -5 9 -3 -1 7 -11 12 -14 12 -22 -1 -6 -9 -10 -10 -10 -3 0 7 8
17 18 22 15 9 14 11 -8 12 -20 1 -21 2 -6 6 14 4 16 7 6 13 -11 7 -11 12 1 26
8 10 10 15 4 12 -5 -3 -16 0 -23 8 -12 13 -8 18 11 15 5 -1 6 3 2 9 -3 6 -11
7 -17 4 -6 -4 -8 1 -3 16 5 17 4 21 -5 15 -8 -5 -11 -4 -6 3 3 5 3 12 -1 15
-5 2 -3 2 4 1 7 -2 15 2 19 8 4 7 3 8 -4 4 -12 -7 -16 5 -12 33 1 13 -1 13
-14 2 -14 -12 -16 -11 -10 3 3 9 14 16 23 16 13 0 14 2 1 9 -8 6 -18 7 -22 5
-4 -3 -5 2 -2 10 3 9 11 13 18 10 6 -3 2 2 -8 10 -15 12 -16 16 -5 16 12 0 12
2 -1 9 -8 6 -17 8 -21 5 -4 -2 -10 0 -14 5 -3 6 3 8 13 6 13 -2 18 3 18 20 0
13 -4 21 -8 19 -5 -3 -5 -10 -2 -16 4 -7 2 -8 -4 -4 -6 4 -9 13 -5 22 3 8 -3
22 -13 30 -11 9 -14 13 -8 10 7 -3 18 2 25 11 10 12 10 14 2 9 -22 -13 -34 3
-21 27 10 21 10 21 -7 7 -17 -14 -18 -14 -6 8 6 12 8 22 3 22 -4 0 -9 10 -9
22 -1 13 -15 34 -31 48 -36 30 -49 62 -24 54 11 -4 13 -3 6 3 -7 4 -14 17 -16
28 -2 11 -9 19 -15 18 -6 -1 -17 5 -25 15 -11 15 -11 16 3 4 14 -10 17 -9 22
8 3 11 0 23 -5 27 -7 4 -8 1 -3 -7 5 -8 4 -11 -3 -7 -12 8 -10 32 3 44 4 4 5
2 1 -4 -4 -7 -2 -13 3 -13 15 0 14 13 -1 29 -11 11 -10 13 4 8 13 -4 16 -1 13
15 -3 11 -7 23 -10 26 -2 3 0 11 6 18 7 8 6 14 -2 20 -8 4 -9 3 -5 -4 5 -8 1
-10 -9 -5 -12 4 -13 8 -5 13 8 5 9 13 4 21 -6 10 -3 10 11 -1 17 -14 17 -14 8
5 -13 23 -16 128 -4 121 4 -3 8 1 8 9 0 8 -4 12 -8 10 -4 -3 -9 2 -13 10 -3 8
-2 14 2 14 21 -3 24 3 6 17 -10 8 -13 13 -7 9 9 -4 11 -1 7 9 -3 9 -10 13 -15
10 -5 -3 -9 0 -9 5 0 6 5 11 10 11 6 0 5 6 -2 14 -9 10 -15 11 -20 2 -5 -7 -8
-6 -8 4 0 9 -9 15 -24 15 -13 0 -22 -5 -19 -11 2 -7 -1 -15 -8 -20 -8 -5 -10
-3 -4 5 5 10 2 9 -13 0 -12 -7 -18 -17 -16 -21 3 -5 0 -7 -8 -6 -7 2 -12 -3
-10 -11 3 -12 0 -12 -13 -1 -13 11 -15 10 -10 -3 4 -8 1 -18 -6 -23 -8 -4 -10
-3 -5 4 4 7 3 12 -2 12 -5 0 -12 -9 -15 -20 -5 -20 -28 -23 -54 -7 -9 6 -11 3
-7 -7 4 -11 0 -14 -15 -11 -14 3 -19 0 -15 -7 5 -7 1 -9 -9 -5 -18 7 -42 -24
-29 -38 4 -5 1 -5 -6 -1 -7 5 -11 15 -8 25 5 12 2 11 -9 -3 -10 -13 -15 -15
-15 -6 0 9 -4 8 -13 -5 -9 -12 -16 -14 -21 -7 -4 7 -15 8 -30 2 -15 -5 -27 -5
-35 3 -6 6 -27 11 -46 12 -27 0 -34 -3 -30 -14 4 -10 -1 -9 -16 5 -12 10 -19
13 -15 7 4 -7 2 -13 -3 -13 -6 0 -11 8 -12 18 0 14 -2 14 -9 -3 -5 -11 -9 -14
-9 -7 -1 6 -6 12 -12 12 -5 0 -7 -6 -3 -12 6 -10 4 -10 -7 0 -15 13 -43 17
-35 4 3 -5 -2 -9 -10 -9 -11 0 -14 7 -10 21 5 19 3 18 -14 -4 -16 -22 -20 -23
-25 -8 -6 16 -9 16 -22 2 -14 -13 -17 -13 -30 3 -8 10 -12 13 -9 7 3 -7 -1
-14 -9 -18 -8 -3 -14 0 -12 7 1 7 -5 12 -13 12 -8 0 -17 2 -20 5 -20 20 -48
28 -60 17 -10 -9 -11 -9 -5 1 4 8 2 13 -6 11 -29 -3 -40 1 -33 14 5 7 0 6 -11
-3 -17 -14 -17 -13 -10 10 6 23 6 23 -6 7 -13 -16 -16 -16 -41 8 -16 14 -28
30 -28 35 0 6 -5 10 -11 10 -8 0 -8 -4 0 -13 8 -10 7 -14 -4 -14 -7 0 -14 3
-13 6 0 3 0 15 -1 26 -1 17 -3 18 -11 5 -6 -10 -10 -11 -10 -2 0 6 -7 12 -15
12 -8 0 -15 5 -15 11 0 8 -6 7 -17 -2 -10 -8 -14 -9 -10 -2 4 6 2 15 -4 19 -8
4 -9 3 -5 -4z m-9 -112 c3 -6 -1 -7 -9 -4 -18 7 -21 14 -7 14 6 0 13 -4 16
-10z m660 -69 c3 -5 2 -12 -3 -15 -5 -3 -9 1 -9 9 0 17 3 19 12 6z m505 -331
c0 -5 -2 -10 -4 -10 -3 0 -8 5 -11 10 -3 6 -1 10 4 10 6 0 11 -4 11 -10z m53
-116 c-4 -12 -8 -13 -14 -3 -9 15 -2 32 11 24 5 -3 6 -13 3 -21z m-1449 -143
c3 -5 -1 -11 -9 -14 -9 -4 -12 -1 -8 9 6 16 10 17 17 5z m1561 -300 c3 -5 2
-12 -3 -15 -5 -3 -9 1 -9 9 0 17 3 19 12 6z m135 -856 c7 -9 8 -15 2 -15 -5 0
-12 7 -16 15 -3 8 -4 15 -2 15 2 0 9 -7 16 -15z"/>
<path d="M1710 2960 c0 -5 5 -10 10 -10 6 0 10 5 10 10 0 6 -4 10 -10 10 -5 0
-10 -4 -10 -10z"/>
<path d="M659 2553 c-13 -16 -12 -17 4 -4 9 7 17 15 17 17 0 8 -8 3 -21 -13z"/>
<path d="M1965 2500 c4 -6 11 -8 16 -5 14 9 11 15 -7 15 -8 0 -12 -5 -9 -10z"/>
<path d="M415 2120 c-3 -5 -1 -10 4 -10 6 0 11 5 11 10 0 6 -2 10 -4 10 -3 0
-8 -4 -11 -10z"/>
<path d="M17 1393 c3 -7 9 -10 14 -7 14 8 11 21 -5 21 -8 0 -12 -6 -9 -14z"/>
<path d="M2295 1021 c-3 -5 -2 -12 3 -15 5 -3 9 1 9 9 0 17 -3 19 -12 6z"/>
<path d="M2513 485 c0 -8 4 -15 9 -15 4 0 8 4 8 9 0 6 -4 12 -8 15 -5 3 -9 -1
-9 -9z"/>
<path d="M2526 433 c-6 -14 -5 -15 5 -6 7 7 10 15 7 18 -3 3 -9 -2 -12 -12z"/>
<path d="M2555 390 c3 -5 8 -10 11 -10 2 0 4 5 4 10 0 6 -5 10 -11 10 -5 0 -7
-4 -4 -10z"/>
</g>
</svg>
